<?xml version="1.0" encoding="utf-8"?>
<!-- Generator: Adobe Illustrator 27.1.0, SVG Export Plug-In . SVG Version: 6.00 Build 0)  -->
<svg version="1.1" id="Layer_1" xmlns="http://www.w3.org/2000/svg" xmlns:xlink="http://www.w3.org/1999/xlink" x="0px" y="0px"
	 viewBox="0 0 512 512" style="enable-background:new 0 0 512 512;" xml:space="preserve">
<style type="text/css">
	.st0{fill:#CCCCCC;}
</style>
<path class="st0" d="M490.7,234.7h-87c-1.7-11.8-4.7-23.3-9.2-34.3l75.2-43.6c10.4-5.6,14.3-18.5,8.7-28.9s-18.5-14.3-28.9-8.7
	c-0.4,0.2-0.7,0.4-1.1,0.6l-75.3,43.7c-7.2-9.1-15.4-17.3-24.5-24.5l43.6-75.3c5.6-10.4,1.7-23.3-8.7-28.9c-9.9-5.3-22.3-2-28.3,7.6
	l-43.7,75.2c-11-4.4-22.5-7.5-34.3-9.2v-87C277.3,9.6,267.8,0,256,0c-11.8,0-21.3,9.6-21.3,21.3v87c-11.8,1.7-23.3,4.7-34.3,9.2
	l-43.6-75.2c-6.2-10-19.3-13.1-29.4-6.9c-9.6,5.9-12.9,18.3-7.6,28.3l43.6,75.4c-9.1,7.2-17.3,15.4-24.5,24.5l-75.3-43.7
	c-10-6.2-23.2-3.1-29.4,6.9s-3.1,23.2,6.9,29.4c0.4,0.2,0.7,0.4,1.1,0.6l75.2,43.6c-4.4,11-7.5,22.5-9.2,34.3h-87
	C9.6,234.7,0,244.2,0,256c0,11.8,9.6,21.3,21.3,21.3h87c1.7,11.8,4.7,23.3,9.2,34.3l-75.2,43.6c-10.4,5.6-14.3,18.5-8.7,28.9
	s18.5,14.3,28.9,8.7c0.4-0.2,0.7-0.4,1.1-0.6l75.3-43.7c7.2,9.1,15.4,17.3,24.5,24.5l-43.6,75.3c-5.6,10.4-1.7,23.3,8.7,28.9
	c9.9,5.3,22.3,2,28.3-7.6l43.6-75.2c11,4.4,22.5,7.5,34.3,9.2v87c0,11.8,9.6,21.3,21.3,21.3c11.8,0,21.3-9.6,21.3-21.3v-87
	c11.8-1.7,23.3-4.7,34.3-9.2l43.6,75.2c6.2,10,19.3,13.1,29.4,6.9c9.6-5.9,12.9-18.3,7.6-28.3l-43.6-75.3
	c9.1-7.2,17.3-15.4,24.5-24.5l75.3,43.7c10,6.2,23.2,3.1,29.4-6.9c6.2-10,3.1-23.2-6.9-29.4c-0.4-0.2-0.7-0.4-1.1-0.6l-75.2-43.6
	c4.4-11,7.5-22.6,9.2-34.3h87c11.8,0,21.3-9.6,21.3-21.3C512,244.2,502.4,234.7,490.7,234.7z M256,362.7
	c-141-4.5-140.9-208.9,0-213.3C397,153.8,396.9,358.2,256,362.7z"/>
</svg>
